<?xml version="1.0" standalone="no"?>
<!DOCTYPE svg PUBLIC "-//W3C//DTD SVG 20010904//EN"
 "http://www.w3.org/TR/2001/REC-SVG-20010904/DTD/svg10.dtd">
<svg version="1.0" xmlns="http://www.w3.org/2000/svg"
 width="300.000000pt" height="300.000000pt" viewBox="0 0 300.000000 300.000000"
 preserveAspectRatio="xMidYMid meet">
<metadata>
Created by potrace 1.14, written by Peter Selinger 2001-2017
</metadata>
<g transform="translate(0.000000,300.000000) scale(0.100000,-0.100000)"
fill="#000000" stroke="none">
<path d="M1509 2176 c-2 -2 -23 -6 -47 -10 -157 -21 -351 -139 -454 -276 -34
-45 -98 -170 -98 -190 0 -9 -13 -29 -30 -45 -44 -42 -56 -86 -36 -136 20 -50
20 -145 -1 -128 -19 16 -17 -22 3 -69 9 -20 18 -50 19 -67 3 -35 29 -124 45
-157 23 -45 95 -145 111 -154 8 -5 37 -20 62 -33 42 -22 47 -29 49 -60 1 -20
3 -49 4 -66 4 -72 6 -111 4 -120 0 -5 -1 -57 -1 -115 0 -58 -5 -127 -13 -155
-10 -37 -10 -52 -2 -57 8 -6 8 -8 -1 -8 -6 0 -10 -8 -8 -18 6 -31 35 -96 47
-103 6 -4 7 -12 2 -20 -5 -8 -9 -18 -11 -24 -1 -5 -4 -21 -7 -35 -11 -47 -14
-89 -9 -110 5 -17 13 -20 64 -20 33 0 59 3 60 8 0 4 2 25 5 46 7 67 27 70 22
4 l-4 -58 343 0 c267 0 343 3 344 13 1 6 2 26 3 44 0 17 5 35 9 40 5 4 8 4 6
-2 -1 -5 2 -29 6 -52 l8 -43 72 0 72 0 -3 27 c-7 65 -17 101 -40 141 l-24 44
22 41 c68 131 -14 307 -143 309 -68 1 -86 -2 -108 -21 -21 -18 -22 -18 -58 0
-20 10 -52 22 -70 25 -18 3 -33 11 -34 18 0 6 -2 20 -5 31 -2 11 -6 46 -9 79
-3 32 -8 62 -11 67 -3 5 1 9 8 9 8 0 9 3 3 8 -16 11 -11 77 8 105 9 14 46 40
81 57 36 17 71 36 78 43 7 7 31 25 52 41 74 55 163 163 171 206 1 3 5 28 10
55 4 28 10 57 12 65 12 43 10 293 -3 365 -16 97 -34 167 -45 180 -5 5 -9 15
-9 23 0 8 -13 34 -30 59 -16 24 -30 46 -30 49 0 9 -54 56 -90 78 -35 22 -131
55 -179 62 -43 6 -188 14 -192 10z"/>
</g>
</svg>
